<svg width="24" height="24" viewBox="0 0 24 24" fill="white" xmlns="http://www.w3.org/2000/svg">
<path fill-rule="evenodd" clip-rule="evenodd" d="M21 5V19C21 19.5304 20.7893 20.0391 20.4142 20.4142C20.0391 20.7893 19.5304 21 19 21H15.25C15.1174 21 14.9902 20.9473 14.8964 20.8536C14.8027 20.7598 14.75 20.6326 14.75 20.5V14.5H17.09C17.2053 14.5 17.317 14.4602 17.4063 14.3873C17.4956 14.3144 17.5569 14.2129 17.58 14.1L17.94 12.3C17.9473 12.2641 17.9467 12.227 17.9381 12.1914C17.9295 12.1557 17.9132 12.1224 17.8903 12.0938C17.8674 12.0652 17.8385 12.0419 17.8056 12.0257C17.7727 12.0095 17.7367 12.0007 17.7 12H14.75V8.75C14.75 8.6837 14.7763 8.62011 14.8232 8.57322C14.8701 8.52634 14.9337 8.5 15 8.5H17.5C17.6326 8.5 17.7598 8.44732 17.8536 8.35355C17.9473 8.25979 18 8.13261 18 8V6.5C18 6.36739 17.9473 6.24021 17.8536 6.14645C17.7598 6.05268 17.6326 6 17.5 6H15C14.2044 6 13.4413 6.31607 12.8787 6.87868C12.3161 7.44129 12 8.20435 12 9V12H10.77C10.6374 12 10.5102 12.0527 10.4164 12.1464C10.3227 12.2402 10.27 12.3674 10.27 12.5V14C10.27 14.1326 10.3227 14.2598 10.4164 14.3536C10.5102 14.4473 10.6374 14.5 10.77 14.5H12V20.5C12 20.6326 11.9473 20.7598 11.8536 20.8536C11.7598 20.9473 11.6326 21 11.5 21H5C4.46957 21 3.96086 20.7893 3.58579 20.4142C3.21071 20.0391 3 19.5304 3 19V5C3 4.46957 3.21071 3.96086 3.58579 3.58579C3.96086 3.21071 4.46957 3 5 3H19C19.5304 3 20.0391 3.21071 20.4142 3.58579C20.7893 3.96086 21 4.46957 21 5Z" fill="white"/>
</svg>
